<svg xmlns="http://www.w3.org/2000/svg" viewBox="0 0 22.59 22.59"><defs><style>.cls-1{fill:#fff;}</style></defs><title>call-icon-footer</title><g id="Layer_2" data-name="Layer 2"><g id="Layer_1-2" data-name="Layer 1"><path class="cls-1" d="M15.82,14.67l-2.2-2.07S12.48,13.87,12,13.69a8.46,8.46,0,0,1-2.81-3.53c-.23-.5,1.44-1.38,1.44-1.38L9.06,6.19S6.62,7.4,6.78,8.84a10,10,0,0,0,5.67,7.42C14,17,15.82,14.67,15.82,14.67Z"/><path class="cls-1" d="M11.29,22.59a11.3,11.3,0,1,1,11.3-11.3A11.31,11.31,0,0,1,11.29,22.59Zm0-21.26a10,10,0,1,0,10,10A10,10,0,0,0,11.29,1.33Z"/></g></g></svg>