<svg xmlns="http://www.w3.org/2000/svg" viewBox="0 0 138.72 27.48"><defs><style>.cls-1{fill:#fff;}</style></defs><title>smallchops-logo</title><g id="Layer_2" data-name="Layer 2"><g id="Layer_1-2" data-name="Layer 1"><path class="cls-1" d="M5.47,14l-.58-.22c-.29-.12-.48-.2-.59-.26l-.48-.23a1.62,1.62,0,0,1-.46-.27c-.1-.08-.21-.19-.33-.3a1,1,0,0,1-.26-.37A1.42,1.42,0,0,1,2.71,12,1.18,1.18,0,0,1,3.17,11a1.55,1.55,0,0,1,1-.38,1.47,1.47,0,0,1,1,.36,2.45,2.45,0,0,1,.66.86L7.49,11A3.68,3.68,0,0,0,6.22,9.4a3.26,3.26,0,0,0-1.89-.62,3.56,3.56,0,0,0-2.5,1,3.1,3.1,0,0,0-1,2.41,2.65,2.65,0,0,0,.56,1.74A3.76,3.76,0,0,0,2.69,15c.52.24,1,.46,1.56.68a4.4,4.4,0,0,1,1.34.79,1.52,1.52,0,0,1,.56,1.22A1.71,1.71,0,0,1,5.61,19a2,2,0,0,1-1.38.51A2.1,2.1,0,0,1,2.76,19a4.39,4.39,0,0,1-1-1.42L0,18.32a4.41,4.41,0,0,0,1.59,2.22,4.41,4.41,0,0,0,2.62.79,4,4,0,0,0,2.84-1.1,3.65,3.65,0,0,0,1.18-2.77,2.91,2.91,0,0,0-.75-2.13A6.34,6.34,0,0,0,5.47,14Z"/><path class="cls-1" d="M21.18,8.78a4.45,4.45,0,0,0-2.09.51,3.34,3.34,0,0,0-1.48,1.47,3.56,3.56,0,0,0-1.35-1.45,3.68,3.68,0,0,0-1.93-.53,3.21,3.21,0,0,0-2.86,1.62h-.06V9.11h-2V21h2V14.85a10.28,10.28,0,0,1,.09-1.44,6.8,6.8,0,0,1,.33-1.31A2.08,2.08,0,0,1,12.64,11a2.51,2.51,0,0,1,1.41-.38c1.41,0,2.12,1.2,2.12,3.59V21h2V14.7a11.44,11.44,0,0,1,.08-1.41A6.44,6.44,0,0,1,18.61,12a1.91,1.91,0,0,1,.79-1,2.44,2.44,0,0,1,1.38-.36A2.2,2.2,0,0,1,22,11a1.57,1.57,0,0,1,.67.87,4.86,4.86,0,0,1,.25,1.06A10.3,10.3,0,0,1,23,14.09V21h2V13.77Q25,8.77,21.18,8.78Z"/><path class="cls-1" d="M36,10.8h-.05a4.94,4.94,0,0,0-4.07-2,5.22,5.22,0,0,0-4.16,1.83,6.69,6.69,0,0,0-1.56,4.47,6.54,6.54,0,0,0,1.58,4.41,5.14,5.14,0,0,0,4.11,1.84,4.94,4.94,0,0,0,4.1-2H36V21h2V9.11H36Zm-1,7.36a3.56,3.56,0,0,1-2.92,1.3,3.44,3.44,0,0,1-2.85-1.34,5,5,0,0,1-1-3.19,4.49,4.49,0,0,1,1.09-3,3.49,3.49,0,0,1,2.78-1.27A3.68,3.68,0,0,1,35,11.88,4.46,4.46,0,0,1,36.06,15,5,5,0,0,1,35,18.16Z"/><rect class="cls-1" x="39.99" y="0.12" width="2.02" height="20.88"/><rect class="cls-1" x="44.04" y="0.12" width="2.02" height="20.88"/><path class="cls-1" d="M53,2.24A10.28,10.28,0,0,0,49.68,4.5a9.65,9.65,0,0,0-2.82,7,9.22,9.22,0,0,0,3.07,7.21,10.32,10.32,0,0,0,7.16,2.81,16.19,16.19,0,0,0,4.38-.89V14.68a5.89,5.89,0,0,1-1.93,1.48,5.42,5.42,0,0,1-2.35.54,5,5,0,0,1-3.73-1.46A5.09,5.09,0,0,1,52,11.51a5.3,5.3,0,0,1,1.41-3.76,4.78,4.78,0,0,1,3.68-1.52,5.64,5.64,0,0,1,2.43.54,5.09,5.09,0,0,1,1.92,1.55V2.38a11.9,11.9,0,0,0-4.53-1A9.89,9.89,0,0,0,53,2.24Z"/><path class="cls-1" d="M71.53,7.59a4.94,4.94,0,0,0-4.14,2.07h-.06V0h-4.6V21h4.6V14.35a3.9,3.9,0,0,1,.58-2.2,2,2,0,0,1,1.83-.89,1.68,1.68,0,0,1,1.66.84,5,5,0,0,1,.42,2.25V21h4.6V13.05a6,6,0,0,0-1.24-4A4.51,4.51,0,0,0,71.53,7.59Z"/><path class="cls-1" d="M90.17,9.46a9.19,9.19,0,0,0-11.11,0,6.26,6.26,0,0,0-2.26,5.06,6.15,6.15,0,0,0,2.28,5.05,9.2,9.2,0,0,0,11.09,0,6.18,6.18,0,0,0,2.27-5.05A6.24,6.24,0,0,0,90.17,9.46Zm-3.39,7.15a2.86,2.86,0,0,1-2.16.82,2.89,2.89,0,0,1-2.17-.82,2.86,2.86,0,0,1-.79-2.09,2.92,2.92,0,0,1,.79-2.08,2.84,2.84,0,0,1,2.17-.85,2.8,2.8,0,0,1,2.16.85,2.92,2.92,0,0,1,.8,2.08A2.87,2.87,0,0,1,86.78,16.61Z"/><path class="cls-1" d="M105.94,9.64a6.07,6.07,0,0,0-4.7-2.05A5.41,5.41,0,0,0,99,8.07a3.87,3.87,0,0,0-1.67,1.42h0V8H92.66V27.48h4.61V19.76a5,5,0,0,0,4,1.67,6,6,0,0,0,4.66-2,6.93,6.93,0,0,0,1.84-4.87A7.07,7.07,0,0,0,105.94,9.64Zm-3.7,7a3.25,3.25,0,0,1-4.32,0,2.83,2.83,0,0,1-.8-2.09,2.88,2.88,0,0,1,.8-2.08,3.17,3.17,0,0,1,4.32,0,2.92,2.92,0,0,1,.8,2.08A2.87,2.87,0,0,1,102.24,16.61Z"/><path class="cls-1" d="M115.11,12.75l-.32-.06-.37-.06-.39-.09a1.92,1.92,0,0,1-.39-.14,2.49,2.49,0,0,1-.3-.19.83.83,0,0,1-.23-.27.72.72,0,0,1-.07-.33.7.7,0,0,1,.46-.65,2.26,2.26,0,0,1,1-.23,5.29,5.29,0,0,1,2.49.63l1.54-2.93a10.23,10.23,0,0,0-4.27-.84,7.6,7.6,0,0,0-2.75.47,4.81,4.81,0,0,0-2.11,1.54,4,4,0,0,0-.86,2.6,3.07,3.07,0,0,0,.78,2.31,4.67,4.67,0,0,0,2.1,1.1c.2.05.48.12.84.19l.82.19a4.54,4.54,0,0,1,.61.22,1,1,0,0,1,.47.35.84.84,0,0,1,.14.5.81.81,0,0,1-.45.73,2,2,0,0,1-1,.25,5.39,5.39,0,0,1-1.85-.39,8.33,8.33,0,0,1-1.79-.92l-1.67,3.21a9.77,9.77,0,0,0,5.24,1.49,7.46,7.46,0,0,0,4.31-1.23,4.08,4.08,0,0,0,1.81-3.6Q118.88,13.51,115.11,12.75Z"/><path class="cls-1" d="M121.61,19.39a.87.87,0,0,0-.65.26.83.83,0,0,0-.27.63.91.91,0,0,0,.27.66.88.88,0,0,0,.65.27.89.89,0,0,0,.64-.27.91.91,0,0,0,.27-.66.83.83,0,0,0-.27-.63A.88.88,0,0,0,121.61,19.39Z"/><path class="cls-1" d="M127.79,13.11a2.58,2.58,0,0,0-2.18,1.15h0v-.93h-1.3V21h1.3V17.36c0-.34,0-.62,0-.86a4.45,4.45,0,0,1,.13-.79A2.17,2.17,0,0,1,126,15a1.65,1.65,0,0,1,.56-.47,1.89,1.89,0,0,1,.89-.2,1.81,1.81,0,0,1,.89.19,1,1,0,0,1,.5.54,2.85,2.85,0,0,1,.19.72c0,.23,0,.53,0,.9V21h1.31V16.45a4.37,4.37,0,0,0-.58-2.43A2.21,2.21,0,0,0,127.79,13.11Z"/><path class="cls-1" d="M137.41,13.33v1.09h0a3.11,3.11,0,0,0-2.62-1.3,3.33,3.33,0,0,0-2.67,1.2,4.22,4.22,0,0,0-1,2.88,4.22,4.22,0,0,0,1,2.84,3.57,3.57,0,0,0,4.14.84,3.19,3.19,0,0,0,1.17-.94h0v.92a6.65,6.65,0,0,1-.11,1.24,3.15,3.15,0,0,1-.36,1,1.82,1.82,0,0,1-.76.72,2.74,2.74,0,0,1-1.24.25,2.43,2.43,0,0,1-1.74-.64,2.21,2.21,0,0,1-.71-1.68h-1.3a3.41,3.41,0,0,0,1.08,2.57,3.85,3.85,0,0,0,2.69,1,3.54,3.54,0,0,0,3-1.36,3.17,3.17,0,0,0,.56-1.06,4.77,4.77,0,0,0,.2-1c0-.27,0-.68,0-1.21v-7.3Zm-.61,5.83a2.3,2.3,0,0,1-1.89.85,2.19,2.19,0,0,1-1.83-.87,3.25,3.25,0,0,1-.68-2.06,2.88,2.88,0,0,1,.7-1.94,2.29,2.29,0,0,1,1.8-.82,2.39,2.39,0,0,1,1.87.79,2.9,2.9,0,0,1,.71,2A3.17,3.17,0,0,1,136.8,19.16Z"/></g></g></svg>